<svg width="120" height="120" viewBox="0 0 120 120" fill="none" xmlns="http://www.w3.org/2000/svg">
<rect width="120" height="120" rx="60" fill="white"/>
<path d="M23.3042 56V54.4869C22.5439 55.6763 21.426 56.271 19.9506 56.271C18.9946 56.271 18.1139 56.0075 17.3084 55.4806C16.5105 54.9537 15.8894 54.2197 15.4453 53.2787C15.0087 52.3303 14.7904 51.2425 14.7904 50.0155C14.7904 48.8186 14.9899 47.7346 15.3889 46.7635C15.7878 45.785 16.3863 45.0359 17.1842 44.5165C17.9821 43.9971 18.8742 43.7374 19.8603 43.7374C20.5829 43.7374 21.2266 43.8917 21.7911 44.2004C22.3557 44.5015 22.8149 44.8967 23.1687 45.386V39.4467H25.1899V56H23.3042ZM16.8793 50.0155C16.8793 51.5511 17.203 52.6991 17.8504 53.4594C18.4978 54.2197 19.2618 54.5999 20.1426 54.5999C21.0308 54.5999 21.7836 54.2385 22.4009 53.5159C23.0257 52.7857 23.3381 51.6754 23.3381 50.1849C23.3381 48.5438 23.0219 47.3394 22.3896 46.5716C21.7573 45.8038 20.9781 45.4199 20.0522 45.4199C19.1489 45.4199 18.3924 45.7887 17.7827 46.5264C17.1804 47.2641 16.8793 48.4272 16.8793 50.0155ZM36.6056 52.1383L38.7058 52.398C38.3746 53.625 37.7611 54.5773 36.8653 55.2548C35.9695 55.9323 34.8253 56.271 33.4327 56.271C31.6787 56.271 30.2861 55.7328 29.2548 54.6563C28.2311 53.5723 27.7192 52.0555 27.7192 50.1058C27.7192 48.0884 28.2386 46.5227 29.2774 45.4086C30.3162 44.2945 31.6637 43.7374 33.3198 43.7374C34.9232 43.7374 36.233 44.2832 37.2492 45.3747C38.2654 46.4662 38.7736 48.0019 38.7736 49.9816C38.7736 50.1021 38.7698 50.2827 38.7623 50.5236H29.8194C29.8947 51.841 30.2673 52.8497 30.9373 53.5497C31.6072 54.2498 32.4428 54.5999 33.444 54.5999C34.1892 54.5999 34.8253 54.4041 35.3522 54.0127C35.8792 53.6213 36.297 52.9965 36.6056 52.1383ZM29.9323 48.8525H36.6282C36.5378 47.8438 36.2819 47.0872 35.8604 46.5829C35.213 45.8 34.3736 45.4086 33.3423 45.4086C32.4089 45.4086 31.6223 45.721 30.9824 46.3458C30.3501 46.9706 30.0001 47.8061 29.9323 48.8525ZM40.456 52.4206L42.4659 52.1044C42.5788 52.9099 42.8912 53.5272 43.4031 53.9562C43.9225 54.3853 44.6451 54.5999 45.571 54.5999C46.5045 54.5999 47.197 54.4117 47.6487 54.0353C48.1003 53.6514 48.3262 53.2035 48.3262 52.6916C48.3262 52.2324 48.1267 51.8711 47.7277 51.6076C47.4492 51.4269 46.7567 51.1973 45.6501 50.9188C44.1596 50.5424 43.1246 50.2188 42.5449 49.9478C41.9728 49.6692 41.5362 49.2891 41.2351 48.8073C40.9415 48.318 40.7947 47.7798 40.7947 47.1926C40.7947 46.6582 40.9152 46.1651 41.1561 45.7134C41.4045 45.2543 41.7395 44.8741 42.161 44.573C42.4772 44.3396 42.9062 44.1439 43.4482 43.9858C43.9978 43.8202 44.5849 43.7374 45.2097 43.7374C46.1507 43.7374 46.975 43.8729 47.6826 44.1439C48.3977 44.4149 48.9246 44.7838 49.2634 45.2505C49.6021 45.7097 49.8355 46.3269 49.9634 47.1023L47.9761 47.3733C47.8858 46.756 47.6223 46.2743 47.1857 45.928C46.7567 45.5817 46.1469 45.4086 45.3565 45.4086C44.4231 45.4086 43.7569 45.5629 43.3579 45.8715C42.9589 46.1802 42.7595 46.5415 42.7595 46.9555C42.7595 47.219 42.8423 47.4561 43.0079 47.6669C43.1735 47.8852 43.4332 48.0658 43.787 48.2089C43.9902 48.2841 44.5887 48.4573 45.5823 48.7283C47.0201 49.1122 48.0213 49.4283 48.5859 49.6768C49.158 49.9176 49.6059 50.2714 49.9296 50.7382C50.2533 51.2049 50.4151 51.7845 50.4151 52.4771C50.4151 53.1545 50.2156 53.7944 49.8167 54.3966C49.4252 54.9913 48.8569 55.4542 48.1116 55.7855C47.3664 56.1092 46.5233 56.271 45.5823 56.271C44.0241 56.271 42.8347 55.9473 42.0142 55.2999C41.2012 54.6525 40.6818 53.6928 40.456 52.4206ZM52.8428 41.784V39.4467H54.8752V41.784H52.8428ZM52.8428 56V44.0084H54.8752V56H52.8428ZM57.6078 56.9937L59.5838 57.2872C59.6666 57.897 59.8962 58.3411 60.2726 58.6196C60.7769 58.996 61.4657 59.1842 62.3389 59.1842C63.2799 59.1842 64.0063 58.996 64.5182 58.6196C65.0301 58.2432 65.3763 57.7163 65.557 57.0388C65.6624 56.6248 65.7113 55.7554 65.7038 54.4305C64.8155 55.4768 63.709 56 62.3841 56C60.7355 56 59.4596 55.4053 58.5563 54.2159C57.653 53.0266 57.2013 51.6001 57.2013 49.9365C57.2013 48.7923 57.4083 47.7384 57.8223 46.7748C58.2363 45.8038 58.8348 45.0548 59.6177 44.5278C60.4081 44.0009 61.334 43.7374 62.3954 43.7374C63.8106 43.7374 64.9774 44.3095 65.8958 45.4537V44.0084H67.7701V54.374C67.7701 56.2409 67.5782 57.562 67.1943 58.3373C66.8179 59.1202 66.2157 59.7375 65.3876 60.1891C64.5671 60.6408 63.5546 60.8666 62.3502 60.8666C60.92 60.8666 59.7645 60.5429 58.8837 59.8956C58.003 59.2557 57.5777 58.2884 57.6078 56.9937ZM59.2902 49.7897C59.2902 51.363 59.6026 52.5109 60.2274 53.2336C60.8522 53.9562 61.6351 54.3176 62.576 54.3176C63.5095 54.3176 64.2924 53.96 64.9247 53.2449C65.557 52.5222 65.8732 51.3931 65.8732 49.8574C65.8732 48.3895 65.5457 47.283 64.8908 46.5377C64.2434 45.7925 63.4606 45.4199 62.5422 45.4199C61.6389 45.4199 60.871 45.7887 60.2387 46.5264C59.6064 47.2566 59.2902 48.3444 59.2902 49.7897ZM70.8527 56V44.0084H72.6819V45.7134C73.5627 44.3961 74.8349 43.7374 76.4985 43.7374C77.2211 43.7374 77.8836 43.8692 78.4858 44.1326C79.0955 44.3886 79.5509 44.7273 79.8521 45.1489C80.1532 45.5704 80.3639 46.071 80.4844 46.6506C80.5597 47.027 80.5973 47.6857 80.5973 48.6266V56H78.5648V48.7057C78.5648 47.8776 78.4858 47.2604 78.3277 46.8539C78.1696 46.4399 77.8873 46.1124 77.4808 45.8715C77.0819 45.6231 76.6114 45.4989 76.0694 45.4989C75.2037 45.4989 74.4547 45.7737 73.8224 46.3232C73.1976 46.8727 72.8852 47.9153 72.8852 49.4509V56H70.8527ZM104.422 49.9026V50.4107C103.715 50.7344 103.018 51.171 102.333 51.7205C101.648 52.27 100.817 53.1018 99.838 54.2159H98.9347C99.4541 52.9212 100.184 51.7506 101.125 50.7043H86.3898C87.3308 51.7506 88.061 52.9212 88.5804 54.2159H87.6771C86.6985 53.1018 85.8667 52.27 85.1816 51.7205C84.4966 51.171 83.8003 50.7344 83.0927 50.4107V49.9026C83.8003 49.5714 84.4966 49.1348 85.1816 48.5928C85.8667 48.0433 86.6985 47.2077 87.6771 46.0861H88.5804C88.061 47.3808 87.3308 48.5514 86.3898 49.5977H101.125C100.184 48.5514 99.4541 47.3808 98.9347 46.0861H99.838C100.817 47.2077 101.648 48.0433 102.333 48.5928C103.018 49.1348 103.715 49.5714 104.422 49.9026ZM23.3494 75.6076L25.348 75.8673C25.1297 77.2449 24.5688 78.3251 23.6655 79.108C22.7697 79.8833 21.6669 80.271 20.3571 80.271C18.7161 80.271 17.395 79.7365 16.3938 78.6676C15.4001 77.5911 14.9033 76.0517 14.9033 74.0494C14.9033 72.7546 15.1179 71.6217 15.5469 70.6506C15.976 69.6796 16.6272 68.9531 17.5004 68.4714C18.3811 67.9821 19.3371 67.7374 20.3684 67.7374C21.6707 67.7374 22.7359 68.0686 23.5639 68.7311C24.3919 69.386 24.9226 70.3194 25.156 71.5314L23.18 71.8362C22.9918 71.0308 22.6568 70.4248 22.175 70.0183C21.7008 69.6118 21.1249 69.4086 20.4474 69.4086C19.4237 69.4086 18.5919 69.7774 17.952 70.5151C17.3122 71.2453 16.9922 72.4046 16.9922 73.9929C16.9922 75.6038 17.3009 76.7744 17.9182 77.5046C18.5354 78.2348 19.3409 78.5999 20.3345 78.5999C21.1325 78.5999 21.7987 78.3552 22.3331 77.8659C22.8676 77.3766 23.2063 76.6238 23.3494 75.6076ZM26.3303 74.0042C26.3303 71.7835 26.9476 70.1388 28.1821 69.0698C29.2134 68.1816 30.4705 67.7374 31.9535 67.7374C33.6021 67.7374 34.9495 68.2794 35.9958 69.3634C37.0422 70.4399 37.5654 71.9303 37.5654 73.8348C37.5654 75.378 37.332 76.5937 36.8653 77.482C36.4061 78.3627 35.7324 79.0477 34.8441 79.537C33.9634 80.0263 32.9998 80.271 31.9535 80.271C30.2748 80.271 28.9161 79.7328 27.8773 78.6563C26.846 77.5799 26.3303 76.0292 26.3303 74.0042ZM28.4193 74.0042C28.4193 75.5399 28.7542 76.6916 29.4242 77.4594C30.0942 78.2197 30.9373 78.5999 31.9535 78.5999C32.9622 78.5999 33.8015 78.2159 34.4715 77.4481C35.1415 76.6803 35.4764 75.5097 35.4764 73.9365C35.4764 72.4535 35.1377 71.3319 34.4602 70.5716C33.7902 69.8038 32.9547 69.4199 31.9535 69.4199C30.9373 69.4199 30.0942 69.8 29.4242 70.5603C28.7542 71.3206 28.4193 72.4686 28.4193 74.0042ZM39.9592 80V68.0084H41.7771V69.6909C42.1535 69.1037 42.6541 68.6332 43.2789 68.2794C43.9037 67.9181 44.615 67.7374 45.413 67.7374C46.3012 67.7374 47.0276 67.9219 47.5922 68.2907C48.1643 68.6596 48.5671 69.1752 48.8004 69.8376C49.7489 68.4375 50.9834 67.7374 52.504 67.7374C53.6934 67.7374 54.608 68.0686 55.2479 68.7311C55.8877 69.386 56.2076 70.3985 56.2076 71.7685V80H54.1865V72.446C54.1865 71.633 54.1187 71.0496 53.9832 70.6958C53.8552 70.3345 53.6181 70.0447 53.2719 69.8264C52.9256 69.6081 52.5191 69.4989 52.0524 69.4989C51.2093 69.4989 50.5092 69.7812 49.9521 70.3458C49.3951 70.9028 49.1166 71.7986 49.1166 73.0331V80H47.0841V72.2089C47.0841 71.3055 46.9185 70.6281 46.5873 70.1764C46.2561 69.7247 45.7141 69.4989 44.9613 69.4989C44.3892 69.4989 43.8585 69.6495 43.3692 69.9506C42.8874 70.2517 42.5374 70.692 42.3191 71.2717C42.1008 71.8513 41.9916 72.6869 41.9916 73.7784V80H39.9592ZM59.2225 80V68.0084H61.0404V69.6909C61.4168 69.1037 61.9174 68.6332 62.5422 68.2794C63.167 67.9181 63.8783 67.7374 64.6763 67.7374C65.5645 67.7374 66.291 67.9219 66.8555 68.2907C67.4276 68.6596 67.8304 69.1752 68.0637 69.8376C69.0122 68.4375 70.2467 67.7374 71.7673 67.7374C72.9567 67.7374 73.8713 68.0686 74.5112 68.7311C75.151 69.386 75.4709 70.3985 75.4709 71.7685V80H73.4498V72.446C73.4498 71.633 73.382 71.0496 73.2465 70.6958C73.1186 70.3345 72.8814 70.0447 72.5352 69.8264C72.1889 69.6081 71.7824 69.4989 71.3157 69.4989C70.4726 69.4989 69.7725 69.7812 69.2155 70.3458C68.6584 70.9028 68.3799 71.7986 68.3799 73.0331V80H66.3474V72.2089C66.3474 71.3055 66.1818 70.6281 65.8506 70.1764C65.5194 69.7247 64.9774 69.4989 64.2246 69.4989C63.6525 69.4989 63.1218 69.6495 62.6325 69.9506C62.1507 70.2517 61.8007 70.692 61.5824 71.2717C61.3641 71.8513 61.2549 72.6869 61.2549 73.7784V80H59.2225ZM86.3447 80V78.2385C85.4112 79.5935 84.1428 80.271 82.5394 80.271C81.8318 80.271 81.1694 80.1355 80.5521 79.8645C79.9424 79.5935 79.487 79.2548 79.1859 78.8483C78.8923 78.4342 78.6853 77.9299 78.5648 77.3352C78.482 76.9362 78.4406 76.3039 78.4406 75.4382V68.0084H80.4731V74.6591C80.4731 75.7205 80.5145 76.4356 80.5973 76.8045C80.7253 77.339 80.9963 77.7605 81.4103 78.0692C81.8243 78.3703 82.3362 78.5208 82.9459 78.5208C83.5557 78.5208 84.1278 78.3665 84.6622 78.0579C85.1967 77.7417 85.5731 77.3164 85.7914 76.7819C86.0172 76.2399 86.1301 75.4571 86.1301 74.4333V68.0084H88.1626V80H86.3447ZM91.3581 80V68.0084H93.1873V69.7134C94.0681 68.3961 95.3402 67.7374 97.0038 67.7374C97.7265 67.7374 98.3889 67.8692 98.9911 68.1326C99.6009 68.3886 100.056 68.7273 100.357 69.1489C100.659 69.5704 100.869 70.071 100.99 70.6506C101.065 71.027 101.103 71.6857 101.103 72.6266V80H99.0702V72.7057C99.0702 71.8776 98.9911 71.2604 98.8331 70.8539C98.675 70.4399 98.3927 70.1124 97.9862 69.8715C97.5872 69.6231 97.1168 69.4989 96.5748 69.4989C95.7091 69.4989 94.9601 69.7737 94.3278 70.3232C93.703 70.8727 93.3906 71.9153 93.3906 73.4509V80H91.3581Z" fill="black"/>
</svg>
