<?xml version="1.0" standalone="no"?>
<!DOCTYPE svg PUBLIC "-//W3C//DTD SVG 20010904//EN"
 "http://www.w3.org/TR/2001/REC-SVG-20010904/DTD/svg10.dtd">
<svg version="1.0" xmlns="http://www.w3.org/2000/svg"
 width="700.000000pt" height="700.000000pt" viewBox="0 0 700.000000 700.000000"
 preserveAspectRatio="xMidYMid meet">
<metadata>
Created by potrace 1.11, written by Peter Selinger 2001-2013
</metadata>
<g transform="translate(0.000000,700.000000) scale(0.100000,-0.100000)"
fill="#000000" stroke="none">
<path d="M1350 4528 l0 -172 -27 25 c-59 53 -84 63 -163 63 -86 1 -150 -24
-202 -78 -109 -113 -126 -369 -33 -516 92 -146 315 -175 417 -55 17 19 17 19
18 -21 l0 -40 55 -1 55 0 0 483 0 484 -60 0 -60 0 0 -172z m-116 -192 c40 -17
71 -48 99 -101 18 -34 21 -57 22 -155 0 -99 -3 -121 -22 -155 -63 -118 -179
-144 -273 -59 -48 43 -73 113 -73 203 0 148 30 221 109 261 45 23 92 25 138 6z"/>
<path d="M3083 4633 l2 -68 57 -1 56 -1 4 46 c6 88 4 91 -62 91 l-59 0 2 -67z"/>
<path d="M1833 4431 c-72 -25 -133 -78 -172 -150 -17 -33 -31 -63 -31 -66 1
-3 -2 -24 -6 -48 -17 -98 -2 -212 38 -291 37 -72 123 -136 203 -151 164 -29
306 31 369 157 30 60 28 63 -51 71 -39 4 -53 2 -53 -7 0 -26 -59 -93 -96 -111
-70 -33 -174 -16 -223 36 -33 34 -59 89 -66 137 -5 36 -3 42 12 43 10 0 127 1
261 1 l243 1 -2 63 c-6 193 -125 323 -302 330 -49 1 -89 -4 -124 -15z m184
-96 c21 -9 46 -23 56 -33 25 -23 54 -80 60 -120 l5 -32 -194 0 -194 0 0 25 c0
14 9 42 19 63 50 97 152 137 248 97z"/>
<path d="M2541 4434 c-123 -33 -184 -130 -151 -243 21 -73 70 -103 250 -155
138 -40 165 -54 174 -90 18 -71 -51 -128 -153 -128 -96 0 -158 40 -176 115 -7
25 -10 27 -44 22 -69 -11 -81 -15 -81 -28 0 -29 50 -115 83 -144 108 -95 356
-82 449 23 42 49 60 142 37 201 -25 68 -77 97 -261 148 -128 35 -147 44 -162
74 -15 31 -14 39 3 69 18 34 74 54 140 51 71 -3 111 -25 135 -73 l18 -38 51 6
c28 4 53 8 55 10 2 2 0 20 -3 40 -9 47 -68 109 -125 131 -59 23 -171 27 -239
9z"/>
<path d="M3565 4440 c-101 -22 -180 -108 -210 -228 -50 -193 15 -381 153 -449
47 -23 69 -28 127 -27 76 1 120 18 168 62 l27 26 0 -70 c0 -82 -24 -141 -68
-173 -40 -28 -147 -39 -203 -21 -40 13 -79 54 -79 83 0 14 -46 27 -98 27 -22
0 -23 -3 -17 -42 11 -67 46 -112 112 -145 53 -25 67 -28 163 -27 84 0 114 4
150 21 88 40 140 113 156 217 9 62 11 701 3 724 -6 17 -22 19 -96 13 -7 -1
-10 -16 -9 -41 l3 -39 -35 31 c-20 17 -52 37 -71 46 -39 17 -128 23 -176 12z
m161 -110 c72 -35 113 -118 115 -231 2 -122 -28 -195 -97 -238 -37 -24 -53
-28 -99 -26 -112 5 -172 79 -182 224 -10 137 28 230 109 270 54 26 100 27 154
1z"/>
<path d="M4395 4441 c-57 -16 -81 -29 -118 -66 l-37 -37 0 49 0 48 -52 -1 -53
0 0 -350 0 -349 58 -2 57 -2 0 192 c1 248 4 277 29 330 39 81 161 118 239 71
58 -34 64 -64 65 -341 l1 -250 58 -1 58 0 0 81 c3 467 1 492 -47 556 -45 59
-173 95 -258 72z"/>
<path d="M3104 4432 c-21 -3 -21 -4 -20 -350 l1 -347 58 -1 57 -2 0 77 c2 361
0 614 -5 619 -6 6 -58 9 -91 4z"/>
<path d="M5045 4239 c-39 -39 -100 -91 -137 -115 -37 -25 -65 -50 -62 -57 2
-7 23 -21 46 -32 23 -11 83 -59 133 -106 90 -86 135 -113 135 -81 0 17 -74
147 -90 157 -5 3 -14 14 -19 23 -8 16 19 17 410 16 230 0 421 -3 424 -5 2 -3
-12 -27 -31 -55 -113 -158 -88 -204 41 -73 37 38 96 88 131 111 39 26 64 49
64 60 0 10 -6 18 -13 18 -24 0 -122 74 -188 142 -49 50 -73 68 -93 68 l-26 0
26 -52 c15 -29 42 -73 61 -97 18 -24 32 -46 30 -48 -7 -6 -828 -5 -835 1 -3 3
4 16 15 29 27 29 93 138 93 155 0 6 -10 12 -23 12 -14 0 -46 -25 -92 -71z"/>
<path d="M1107 3039 c-155 -36 -237 -164 -237 -368 0 -143 52 -252 147 -307
124 -73 279 -58 373 36 43 42 100 154 86 167 -6 6 -76 22 -98 23 -10 0 -19
-11 -23 -32 -20 -87 -77 -138 -158 -141 -92 -2 -163 49 -189 135 -7 24 -13 86
-13 138 0 84 3 102 27 150 16 32 41 64 61 77 36 25 111 39 151 29 38 -9 93
-62 106 -102 12 -35 13 -35 54 -29 73 11 75 13 66 43 -21 74 -77 139 -145 168
-45 19 -152 26 -208 13z"/>
<path d="M1777 3039 c-126 -30 -213 -130 -235 -269 -25 -167 25 -324 128 -395
141 -98 366 -62 460 73 43 61 58 128 56 248 -1 106 -3 114 -36 180 -57 111
-152 169 -280 171 -30 1 -72 -3 -93 -8z m195 -125 c64 -44 91 -106 94 -213 6
-178 -69 -282 -202 -283 -75 -1 -138 38 -173 107 -23 44 -26 61 -26 160 0 94
3 116 22 150 43 80 103 117 186 112 44 -3 67 -10 99 -33z"/>
<path d="M2550 3029 c-25 -11 -60 -34 -77 -52 -29 -27 -33 -29 -34 -11 -1 10
-1 25 0 32 4 25 -17 37 -61 36 l-43 0 -3 -350 -2 -349 60 -2 60 -1 0 216 c1
228 8 287 41 334 58 80 194 84 235 6 16 -29 18 -66 20 -283 1 -137 3 -255 3
-261 1 -7 23 -11 58 -10 l57 1 2 240 c1 223 3 244 22 282 38 74 130 107 209
74 54 -22 58 -41 63 -331 l5 -265 58 -1 58 -1 -3 287 -3 287 -30 48 c-38 60
-87 87 -168 91 -76 4 -135 -20 -194 -79 -24 -22 -43 -36 -43 -30 0 19 -50 72
-83 89 -47 25 -153 26 -207 3z"/>
<path d="M3663 3023 c-26 -14 -60 -37 -75 -53 l-27 -29 -3 47 c-3 50 3 47 -81
43 l-22 -1 1 -337 c1 -186 2 -343 3 -349 1 -12 110 -17 112 -5 0 3 2 110 3
236 3 251 8 279 62 328 26 24 39 30 103 42 53 10 120 -43 126 -98 1 -12 3
-133 4 -268 l1 -246 60 0 60 1 0 231 c0 147 4 244 11 266 33 96 145 142 229
92 49 -29 54 -54 56 -327 1 -138 2 -254 3 -258 0 -4 26 -6 56 -6 42 1 55 5 56
17 6 113 -1 525 -10 559 -31 114 -144 162 -294 126 -15 -3 -50 -28 -78 -54
l-50 -47 -16 28 c-50 84 -188 113 -290 62z"/>
<path d="M5569 3036 c-39 -14 -88 -45 -109 -71 -20 -24 -26 -18 -24 25 2 42 1
43 -61 43 -14 0 -29 -1 -35 -2 -6 -1 -10 -125 -10 -350 l0 -349 58 1 57 2 2
223 c3 231 9 282 43 324 61 78 215 81 265 5 22 -34 23 -46 24 -319 l1 -236 59
1 60 2 -1 253 c-1 271 -6 317 -42 372 -47 71 -192 109 -287 76z"/>
<path d="M4577 3025 c-2 -5 -3 -125 -2 -265 1 -258 7 -302 43 -358 26 -40 97
-74 167 -80 88 -7 145 11 204 64 l47 43 -1 -37 c-2 -54 1 -57 55 -59 l50 -2 1
37 c1 51 1 633 0 652 -1 15 -9 16 -101 11 -13 -1 -15 -29 -15 -198 1 -227 -6
-290 -38 -338 -61 -94 -218 -97 -271 -5 -19 32 -20 53 -21 287 0 218 -2 253
-15 254 -69 4 -100 3 -103 -6z"/>
</g>
</svg>
